<?xml version="1.0" encoding="UTF-8" ?>
<svg version="1.1" width="32" height="32" xmlns="http://www.w3.org/2000/svg" shape-rendering="crispEdges">
<rect x="0" y="0" width="29" height="1" fill="#DB4161" />
<rect x="29" y="0" width="3" height="1" fill="#FFFFFF" />
<rect x="0" y="1" width="2" height="1" fill="#DB4161" />
<rect x="2" y="1" width="26" height="1" fill="#FFBAEB" />
<rect x="28" y="1" width="2" height="1" fill="#DB4161" />
<rect x="30" y="1" width="2" height="31" fill="#FFFFFF" />
<rect x="0" y="2" width="1" height="30" fill="#DB4161" />
<rect x="1" y="2" width="1" height="28" fill="#FFBAEB" />
<rect x="2" y="2" width="28" height="2" fill="#61D3E3" />
<rect x="2" y="4" width="28" height="1" fill="#4192C3" />
<rect x="2" y="5" width="28" height="4" fill="#FFBAEB" />
<rect x="2" y="9" width="28" height="4" fill="#FF61B2" />
<rect x="2" y="13" width="28" height="6" fill="#DB4161" />
<rect x="2" y="19" width="28" height="4" fill="#FF61B2" />
<rect x="2" y="23" width="28" height="5" fill="#FFBAEB" />
<rect x="2" y="28" width="28" height="1" fill="#4192C3" />
<rect x="2" y="29" width="28" height="2" fill="#61D3E3" />
<rect x="1" y="30" width="1" height="2" fill="#DB4161" />
<rect x="2" y="31" width="28" height="1" fill="#DB4161" />
</svg>